<svg width="250" height="151" viewBox="0 0 250 151" fill="none" xmlns="http://www.w3.org/2000/svg">
<path d="M16 1H234C242.56 1 249.5 7.93959 249.5 16.5V134.5C249.5 143.06 242.56 150 234 150H16C7.43959 150 0.5 143.06 0.5 134.5V16.5C0.500001 7.93959 7.43959 1 16 1Z" fill="#3F414E" stroke="white"/>
<path d="M3 19C3 10.1634 10.1634 3 19 3H233C241.837 3 249 10.1634 249 19V94C249 102.837 241.837 110 233 110H19C10.1634 110 3 102.837 3 94V19Z" fill="#4E5567"/>
<path d="M187.376 54.3232C188.644 61.366 120.99 59.5341 109.142 56.83C102.4 55.549 110.294 25.748 106.057 16.0286C103.617 6.92893 179.668 9.32551 185.283 15.3537C189.605 19.9907 185.59 44.4064 187.376 54.3232Z" fill="#FBF5EB"/>
<path d="M112.116 43.8375C112.383 42.6208 112.041 41.2205 112.232 40.5456C112.664 39.0306 112.881 38.273 112.624 38.0572C111.583 37.1757 110.858 41.1884 109.877 41.1563C109.485 40.9588 109.153 39.7468 109.022 38.8745C108.866 37.8323 109.304 34.747 108.619 34.8021C108.041 34.848 107.653 37.0931 107.668 37.846C107.648 37.061 107.996 33.6176 107.08 33.9069C106.411 34.118 106.401 38.0526 106.416 38.576C106.396 38.3235 106.552 34.5496 105.887 34.8113C105.123 35.1097 105.279 38.5072 105.294 39.026C105.264 38.7092 105.505 35.4724 104.695 35.8259C104.192 36.0463 103.986 39.1821 104.001 39.7055C104.061 42.0102 106.431 47.5701 106.858 48.2128L110.793 48.2863C110.793 48.2863 111.346 46.8033 111.507 46.0779C111.714 45.1643 112.015 44.292 112.116 43.8375Z" fill="#FDBCA0"/>
<path d="M133.136 71.3292C133.614 74.6623 128.497 86.232 129.589 91.9755C140.169 94.0048 165.124 90.364 167.066 82.7289C167.222 77.5593 167.021 71.7745 167.131 68.3312C167.413 59.3325 165.592 43.9109 149.175 48.6857C148.335 48.525 148.365 47.3956 140.089 47.9098C132.084 48.3965 131.697 61.3664 133.136 71.3292Z" fill="#8E97FD"/>
<path d="M105.319 48.4515C101.993 63.919 112.292 75.5071 126.666 74.8873C147.087 74.0103 159.384 59.3692 153.799 49.209L148.3 49.2825C132.004 46.6839 128.105 57.8082 123.2 57.4042C119.673 57.115 113.852 54.296 112.654 47.772C112.393 46.3488 105.585 47.2165 105.319 48.4515Z" fill="#8E97FD"/>
<path d="M143.833 49.4293C141.106 55.3795 130.405 58.1938 132.12 49.4064C132.648 46.693 128.744 44.5444 128.392 42.6161C127.592 38.227 132.397 36.8175 133.453 32.8186C135.043 26.7951 137.675 16.7956 155.51 26.2349C160.934 29.0998 143.833 49.4293 143.833 49.4293Z" fill="#3F414E"/>
<path d="M152.592 38.5347L152.622 49.6728C151.993 52.8774 143.38 53.3502 143.833 49.7003L143.808 44.9163L152.592 38.5347Z" fill="#F0A38B"/>
<path d="M138.183 38.3694C138.127 39.0488 138.032 39.6687 138.072 40.3344C138.127 41.2021 138.334 42.0836 138.696 42.91C139.662 45.1046 141.674 48.2219 144.195 48.277C148.643 48.3689 154.408 43.7869 153.694 37.8689C153.07 32.7039 148.285 24.7842 146.555 27.8327C143.868 32.5662 140.854 30.7435 138.932 33.668C138.53 34.2787 138.158 35.05 138.188 36.8267C138.198 37.4052 138.218 37.9011 138.183 38.3694Z" fill="#FDBCA0"/>
<path d="M147.34 41.2847C147.289 42.5473 148.366 43.6079 149.75 43.6584C151.133 43.7043 152.295 42.7218 152.351 41.4592C152.401 40.1966 151.324 39.1361 149.941 39.0856C148.557 39.0351 147.395 40.0222 147.34 41.2847Z" fill="#F4A07B"/>
<path d="M138.072 40.3346C138.127 41.2023 138.344 42.0792 138.696 42.9102C139.838 42.7266 140.729 41.8405 140.774 40.7386C140.824 39.476 139.748 38.4155 138.364 38.365C138.304 38.365 138.243 38.365 138.183 38.365C138.127 39.0491 138.032 39.6689 138.072 40.3346Z" fill="#F4A07B"/>
<path d="M145.623 38.3602C145.623 38.3602 146.63 39.8844 149.724 38.1581C150.111 37.9424 148.395 38.4244 147.334 38.5025C146.247 38.5759 145.352 38.0296 145.623 38.3602Z" fill="#002869"/>
<path d="M138.716 37.3779C138.968 37.7544 141.197 39.3199 142.017 37.9334C142.233 37.5707 141.373 38.3329 140.371 37.9977C139.345 37.658 138.555 37.1392 138.716 37.3779Z" fill="#002869"/>
<path d="M144.221 42.0331C143.562 42.0607 142.546 41.9138 142.374 41.2067C142.299 40.8945 142.475 40.6283 142.631 40.362C143.034 39.6779 143.391 39.0535 143.366 38.2501C143.361 38.1445 143.542 38.1215 143.547 38.2271C143.572 38.9938 143.28 39.6182 142.888 40.2839C142.656 40.6742 142.38 41.0185 142.732 41.4455C143.054 41.8311 143.698 41.8954 144.196 41.8725C144.311 41.8679 144.337 42.0286 144.221 42.0331Z" fill="#F27979"/>
<path d="M146.112 43.6582C146.308 43.3001 144.231 44.5627 141.966 43.4425C140.995 42.9604 143.325 45.559 146.112 43.6582Z" fill="#F27979"/>
<path d="M58.5762 53.9326C56.9713 57.4311 46.9593 62.8945 45.309 62.0911C42.6073 60.7688 32.6054 47.7392 33.4355 44.6356C34.2254 41.6835 43.7343 36.3486 43.7343 36.3486C43.7343 36.3486 53.4847 32.7675 58.9385 32.6803C61.937 32.6298 73.9414 49.213 72.4823 52.6471C71.7679 54.3137 63.1143 55.3605 58.5762 53.9326Z" fill="white"/>
<path d="M58.3299 52.9411C57.8569 56.7288 46.24 62.7478 43.9609 61.926C42.6226 61.4439 31.3528 47.0094 32.1779 43.9104C32.9678 40.9583 47.8047 34.4159 47.8047 34.4159C47.8047 34.4159 55.8747 33.0248 61.3335 32.933C64.3321 32.8825 73.5441 48.7311 72.0851 52.1698C71.3757 53.8364 60.8756 55.7096 58.3299 52.9411Z" fill="white"/>
<path d="M58.0979 52.3583C56.4578 57.1606 44.222 62.1558 42.8032 61.288C40.5039 59.874 31.8051 47.3861 32.6302 44.2825C33.4201 41.3304 48.101 34.9487 48.101 34.9487C52.5989 34.7008 56.2414 33.3418 62.0725 33.1949C65.0812 33.1168 74.5649 47.7534 73.4228 51.1967C72.7487 53.2352 59.9695 54.3692 58.0979 52.3583Z" fill="white"/>
<path d="M55.6885 53.5701C55.6885 53.5701 56.6846 55.4846 59.0392 54.6536C61.59 53.7538 61.3133 51.4077 61.3133 51.4077C59.0191 51.6051 57.0519 52.2112 55.6885 53.5701Z" fill="#E8E2E3"/>
<path d="M57.5903 51.2332C56.725 51.8209 56.3124 52.7345 56.3728 53.9971C56.6897 55.2 44.7105 60.3007 41.6516 60.5486C39.5989 60.7139 30.6484 44.7459 31.0107 42.8498C31.2924 41.3852 45.4602 35.6739 46.1243 34.5123C46.1243 34.5123 48.2424 33.0569 49.6914 33.3829C51.1202 33.7043 63.2554 31.0322 64.6843 31.0001C66.9231 30.9542 75.4459 46.3666 75.4157 49.4748C75.4006 50.7603 61.3184 53.5426 60.8354 52.4866C60.3172 51.3434 57.5903 51.2332 57.5903 51.2332Z" fill="#8E97FD"/>
<path d="M45.5262 34.5905L56.3734 53.9926C57.4652 52.753 59.3871 51.6144 60.8361 52.4867L50.3864 33.1581C49.8531 32.1939 45.169 33.9477 45.5262 34.5905Z" fill="#4E5567"/>
<path d="M42.8945 56.2238C45.7673 55.2045 48.4841 53.9236 50.9192 52.1928C51.2663 51.9494 51.6537 52.4544 51.3116 52.7024C48.8262 54.4654 46.054 55.7693 43.1309 56.8069C42.7234 56.9538 42.4869 56.3707 42.8945 56.2238Z" fill="#4E5567"/>
<path d="M42.0288 53.7447C43.8551 52.9688 45.8525 52.2525 47.4675 51.1323C47.8146 50.889 48.2071 51.3986 47.8599 51.6419C46.2047 52.7897 44.1369 53.5335 42.2653 54.3277C41.8678 54.493 41.6364 53.9099 42.0288 53.7447Z" fill="#4E5567"/>
<path d="M243.345 143.995C227.292 149.97 137.06 146.286 93.8209 147.563C92.8222 147.594 91.8234 147.621 90.8247 147.648C72.6902 148.164 55.2178 148.446 40.9835 148.249C39.2909 148.226 37.6404 148.195 36.0424 148.155C20.4099 147.787 9.57118 146.729 7.55273 144.591C6.36478 143.332 3.8417 132.906 3.25298 126.348C3.21093 125.972 3.1794 125.591 3.16888 125.201C2.32786 113.426 4.64069 97.5811 9.82349 92.9957C10.0548 92.7895 10.2966 92.5968 10.5489 92.4399C21.0508 82.0165 31.6298 76.7472 56.1695 85.2024C90.8246 78.0484 101.826 90.4569 136.503 86.2095C136.65 86.214 136.787 86.2185 136.923 86.2185C152.955 86.5277 154.329 79.3497 174.778 87.1567C176.124 87.215 185.685 81.952 199.318 86.5062C224.299 81.9766 232.72 87.1567 238.855 91.0603C251.124 100.169 250.945 141.171 243.345 143.995Z" fill="#016099"/>
<path d="M231.701 90.364C233.678 90.2998 235.655 90.2401 237.633 90.1758C238.458 90.1483 238.463 88.9729 237.633 89.0005C235.655 89.0648 233.678 89.1244 231.701 89.1887C230.876 89.2163 230.871 90.3916 231.701 90.364Z" fill="#656B7B"/>
<path d="M224.058 136.009C222.438 137.042 220.813 138.075 219.193 139.108C218.514 139.54 219.213 140.527 219.893 140.095C221.513 139.062 223.138 138.029 224.758 136.996C225.437 136.565 224.738 135.578 224.058 136.009Z" fill="#656B7B"/>
<path d="M235.116 97.4158C233.683 99.6379 232.244 101.855 230.81 104.078C230.392 104.725 231.434 105.418 231.851 104.766C233.285 102.544 234.724 100.327 236.158 98.1045C236.581 97.4617 235.539 96.7639 235.116 97.4158Z" fill="#656B7B"/>
<path d="M237.24 129.853C238.583 131.552 240.077 133.135 241.728 134.595C242.321 135.123 243.232 134.292 242.638 133.764C241.069 132.373 239.635 130.877 238.352 129.261C237.869 128.65 236.752 129.238 237.24 129.853Z" fill="#656B7B"/>
<path d="M241.471 110.368C241.471 110.368 241.471 114.22 241.471 116.24C241.471 116.998 242.759 116.998 242.759 116.24C242.759 114.215 242.759 112.324 242.759 110.368C242.759 109.588 241.471 109.588 241.471 110.368C241.471 109.588 241.471 110.368 241.471 110.368Z" fill="#656B7B"/>
<path d="M210.691 121.625C209.036 121.198 207.386 120.771 205.73 120.344C204.935 120.138 204.513 121.249 205.313 121.455C206.968 121.882 208.618 122.309 210.274 122.736C211.068 122.938 211.491 121.832 210.691 121.625Z" fill="#656B7B"/>
<path d="M215.818 94.8543C217.776 95.9332 219.622 97.1544 221.358 98.5134C221.987 99.0047 222.696 98.0222 222.072 97.5355C220.336 96.1765 218.49 94.9599 216.533 93.8764C215.823 93.4861 215.104 94.4641 215.818 94.8543Z" fill="#656B7B"/>
<path d="M132.602 121.933C131.415 121.868 130.228 121.809 129.04 121.749C129.02 121.363 129.01 120.973 129 120.574C130.187 120.638 131.37 120.698 132.557 120.757C133.377 120.803 133.432 121.979 132.602 121.933Z" fill="#656B7B"/>
<path d="M188.71 134.439C190.687 134.503 192.664 134.563 194.641 134.627C195.466 134.655 195.471 135.83 194.641 135.803C192.664 135.738 190.687 135.679 188.71 135.614C187.879 135.587 187.879 134.411 188.71 134.439Z" fill="#656B7B"/>
<path d="M190.204 105.781C188.771 103.559 187.332 101.342 185.898 99.1194C185.48 98.4721 186.522 97.7788 186.939 98.4308C188.373 100.653 189.812 102.87 191.246 105.092C191.668 105.74 190.627 106.433 190.204 105.781Z" fill="#656B7B"/>
<path d="M172.384 143.479C171.906 143.511 171.428 143.539 170.95 143.566C170.105 142.258 169.26 140.954 168.414 139.645C167.997 138.998 169.038 138.305 169.456 138.957C170.432 140.467 171.408 141.973 172.384 143.479Z" fill="#656B7B"/>
<path d="M204.24 106.327C204.24 106.327 204.24 102.475 204.24 100.455C204.24 99.6978 205.528 99.6978 205.528 100.455C205.528 102.48 205.528 104.372 205.528 106.327C205.528 107.112 204.24 107.112 204.24 106.327C204.24 107.112 204.24 106.327 204.24 106.327Z" fill="#656B7B"/>
<path d="M181.923 111.249C180.267 111.676 178.617 112.103 176.962 112.53C176.167 112.737 175.744 111.626 176.544 111.419C178.2 110.992 179.85 110.565 181.505 110.138C182.295 109.932 182.717 111.043 181.923 111.249Z" fill="#656B7B"/>
<path d="M177.002 127.391C178.959 126.312 180.806 125.091 182.541 123.732C183.17 123.241 183.88 124.223 183.256 124.71C181.52 126.069 179.674 127.286 177.716 128.369C177.007 128.759 176.288 127.786 177.002 127.391Z" fill="#656B7B"/>
<path d="M147.097 144.181C146.287 144.159 145.497 144.126 144.732 144.085C143.852 143.484 143.002 142.85 142.176 142.184C141.558 141.684 142.363 140.77 142.981 141.271C144.29 142.317 145.658 143.291 147.097 144.181Z" fill="#656B7B"/>
<path d="M161.461 124.513C160.47 126.928 159.479 129.343 158.488 131.753C158.201 132.456 156.953 132.153 157.245 131.446C158.236 129.031 159.227 126.616 160.218 124.205C160.51 123.503 161.753 123.806 161.461 124.513Z" fill="#656B7B"/>
<path d="M141.135 95.1529C139.248 94.6203 137.356 94.0832 135.47 93.5506C134.68 93.3256 135.017 92.1916 135.807 92.4166C137.693 92.9492 139.585 93.4863 141.472 94.0189C142.262 94.2439 141.925 95.3779 141.135 95.1529Z" fill="#656B7B"/>
<path d="M154.564 100.557C155.308 103.045 156.058 105.529 156.802 108.017C157.019 108.738 155.816 109.16 155.6 108.43C154.855 105.942 154.106 103.458 153.361 100.97C153.14 100.249 154.342 99.8266 154.564 100.557Z" fill="#656B7B"/>
<path d="M145.125 126.919C143.339 128.236 141.442 129.407 139.43 130.422C138.705 130.789 138.061 129.77 138.791 129.403C140.708 128.438 142.519 127.337 144.224 126.083C144.858 125.61 145.769 126.441 145.125 126.919Z" fill="#656B7B"/>
<path d="M141.673 107.443C141.673 107.443 140.566 111.157 139.983 113.113C139.766 113.843 138.524 113.535 138.74 112.805C139.324 110.854 139.867 109.027 140.43 107.135C140.657 106.378 141.895 106.685 141.673 107.443C141.895 106.685 141.673 107.443 141.673 107.443Z" fill="#656B7B"/>
<path d="M163.463 118.329C165.179 118.315 166.9 118.297 168.615 118.283C169.441 118.274 169.531 119.449 168.701 119.453C166.985 119.467 165.265 119.486 163.549 119.499C162.724 119.509 162.633 118.338 163.463 118.329Z" fill="#656B7B"/>
<path d="M176.479 102.232C174.28 102.806 172.147 103.541 170.084 104.436C169.335 104.762 168.937 103.642 169.677 103.32C171.74 102.425 173.873 101.691 176.072 101.117C176.866 100.91 177.279 102.026 176.479 102.232Z" fill="#656B7B"/>
<path d="M117.701 88.364C119.678 88.2998 121.655 88.2401 123.633 88.1758C124.458 88.1483 124.463 86.9729 123.633 87.0005C121.655 87.0648 119.678 87.1244 117.701 87.1887C116.876 87.2163 116.871 88.3916 117.701 88.364Z" fill="#656B7B"/>
<path d="M110.058 134.009C108.438 135.042 106.813 136.075 105.193 137.108C104.514 137.54 105.213 138.527 105.893 138.095C107.513 137.062 109.138 136.029 110.758 134.996C111.437 134.565 110.738 133.578 110.058 134.009Z" fill="#656B7B"/>
<path d="M121.117 95.4158C119.684 97.6379 118.245 99.8554 116.811 102.078C116.393 102.725 117.435 103.418 117.852 102.766C119.286 100.544 120.725 98.3266 122.159 96.1045C122.582 95.4617 121.54 94.7639 121.117 95.4158Z" fill="#656B7B"/>
<path d="M123.24 127.853C124.583 129.552 126.077 131.135 127.728 132.595C128.321 133.123 129.232 132.292 128.638 131.764C127.069 130.373 125.635 128.877 124.352 127.261C123.869 126.65 122.752 127.238 123.24 127.853Z" fill="#656B7B"/>
<path d="M127.472 108.368C127.472 108.368 127.472 112.22 127.472 114.24C127.472 114.997 128.76 114.997 128.76 114.24C128.76 112.215 128.76 110.323 128.76 108.368C128.76 107.587 127.472 107.587 127.472 108.368C127.472 107.587 127.472 108.368 127.472 108.368Z" fill="#656B7B"/>
<path d="M96.6911 119.625C95.0359 119.198 93.3856 118.771 91.7304 118.344C90.9355 118.138 90.5129 119.249 91.3128 119.455C92.9681 119.882 94.6183 120.309 96.2735 120.736C97.0685 120.938 97.4911 119.832 96.6911 119.625Z" fill="#656B7B"/>
<path d="M101.817 92.8543C103.775 93.9332 105.621 95.1544 107.357 96.5134C107.986 97.0047 108.695 96.0222 108.071 95.5355C106.335 94.1765 104.489 92.9599 102.532 91.8764C101.823 91.4861 101.103 92.4641 101.817 92.8543Z" fill="#656B7B"/>
<path d="M18.6023 119.933C17.415 119.868 16.2276 119.809 15.0402 119.749C15.0201 119.363 15.0101 118.973 15 118.574C16.1874 118.638 17.3697 118.698 18.557 118.757C19.3771 118.803 19.4325 119.979 18.6023 119.933Z" fill="#656B7B"/>
<path d="M74.7095 132.439C76.6868 132.503 78.664 132.563 80.6413 132.627C81.4664 132.655 81.4714 133.83 80.6413 133.803C78.664 133.738 76.6868 133.679 74.7095 133.614C73.8794 133.587 73.8794 132.411 74.7095 132.439Z" fill="#656B7B"/>
<path d="M76.2034 103.781C74.7695 101.559 73.3306 99.3415 71.8967 97.1194C71.4791 96.4721 72.5206 95.7788 72.9382 96.4308C74.3721 98.6529 75.811 100.87 77.2449 103.092C77.6675 103.74 76.626 104.433 76.2034 103.781Z" fill="#656B7B"/>
<path d="M58.3839 141.479C57.9059 141.511 57.428 141.539 56.95 141.566C56.1048 140.258 55.2595 138.954 54.4143 137.645C53.9967 136.998 55.0382 136.305 55.4558 136.957C56.4318 138.467 57.4079 139.973 58.3839 141.479Z" fill="#656B7B"/>
<path d="M90.2402 104.328C90.2402 104.328 90.2402 100.476 90.2402 98.4558C90.2402 97.6983 91.5282 97.6983 91.5282 98.4558C91.5282 100.481 91.5282 102.372 91.5282 104.328C91.5282 105.113 90.2402 105.113 90.2402 104.328C90.2402 105.113 90.2402 104.328 90.2402 104.328Z" fill="#656B7B"/>
<path d="M67.9226 109.249C66.2673 109.676 64.6171 110.103 62.9618 110.53C62.1669 110.737 61.7443 109.626 62.5443 109.419C64.1995 108.992 65.8497 108.565 67.505 108.138C68.2949 107.932 68.7175 109.043 67.9226 109.249Z" fill="#656B7B"/>
<path d="M63.002 125.391C64.9592 124.312 66.8056 123.091 68.5414 121.732C69.1703 121.241 69.8797 122.223 69.2558 122.71C67.52 124.069 65.6736 125.286 63.7165 126.369C63.0071 126.759 62.2876 125.786 63.002 125.391Z" fill="#656B7B"/>
<path d="M33.0969 142.181C32.2869 142.159 31.497 142.126 30.7323 142.085C29.8518 141.484 29.0016 140.85 28.1765 140.184C27.5576 139.684 28.3626 138.77 28.9814 139.271C30.2895 140.317 31.658 141.291 33.0969 142.181Z" fill="#656B7B"/>
<path d="M47.4612 122.513C46.47 124.928 45.4789 127.343 44.4878 129.753C44.201 130.456 42.9533 130.153 43.2451 129.446C44.2362 127.031 45.2273 124.616 46.2185 122.205C46.5103 121.503 47.753 121.806 47.4612 122.513Z" fill="#656B7B"/>
<path d="M27.1347 93.1527C25.248 92.6201 23.3563 92.0829 21.4696 91.5503C20.6797 91.3254 21.0168 90.1914 21.8067 90.4163C23.6934 90.9489 25.5851 91.4861 27.4718 92.0186C28.2617 92.2436 27.9246 93.3776 27.1347 93.1527Z" fill="#656B7B"/>
<path d="M40.5635 98.5566C41.3081 101.045 42.0578 103.529 42.8024 106.017C43.0187 106.738 41.8163 107.16 41.5999 106.43C40.8553 103.942 40.1057 101.458 39.3611 98.9698C39.1397 98.249 40.3421 97.8266 40.5635 98.5566Z" fill="#656B7B"/>
<path d="M31.125 124.919C29.3389 126.236 27.4421 127.407 25.4297 128.422C24.7052 128.789 24.0612 127.77 24.7907 127.403C26.7076 126.438 28.5188 125.337 30.2244 124.083C30.8583 123.61 31.7689 124.441 31.125 124.919Z" fill="#656B7B"/>
<path d="M27.6722 105.443C27.6722 105.443 26.5654 109.157 25.9817 111.113C25.7654 111.843 24.5227 111.535 24.739 110.805C25.3227 108.854 25.866 107.027 26.4295 105.135C26.6559 104.378 27.8936 104.685 27.6722 105.443C27.8936 104.685 27.6722 105.443 27.6722 105.443Z" fill="#656B7B"/>
<path d="M49.4635 116.329C51.1791 116.315 52.8998 116.297 54.6154 116.283C55.4405 116.274 55.5311 117.449 54.7009 117.453C52.9853 117.467 51.2647 117.486 49.549 117.499C48.7239 117.509 48.6334 116.338 49.4635 116.329Z" fill="#656B7B"/>
<path d="M62.4791 100.232C60.2805 100.806 58.1472 101.541 56.0845 102.436C55.3348 102.762 54.9374 101.642 55.6769 101.32C57.7397 100.425 59.8729 99.6906 62.0715 99.1167C62.8665 98.9101 63.279 100.026 62.4791 100.232Z" fill="#656B7B"/>
<path d="M152.236 90.3483C156.367 90.8395 175.415 99.8611 181.156 87.5936C189.185 70.4411 174.479 52.5587 162.138 54.0921L166.867 70.1289C164.985 72.9617 166.067 77.7915 165.609 79.0128C164.462 82.0705 165.76 83.7738 152 83.5947C150.425 83.581 150.868 90.1876 152.236 90.3483Z" fill="#8E97FD"/>
<path d="M147.369 83.1539C146.076 82.782 144.507 82.9427 143.792 82.6948C142.192 82.1393 141.387 81.8592 141.121 82.0704C140.049 82.9198 144.346 84.0079 144.2 84.894C143.943 85.2291 142.585 85.4036 141.624 85.4265C140.472 85.4541 137.161 84.7287 137.146 85.3577C137.136 85.8856 139.536 86.4779 140.361 86.5468C139.501 86.4779 135.793 85.7984 136.009 86.6569C136.17 87.2859 140.452 87.7175 141.025 87.7588C140.748 87.7496 136.653 87.2033 136.864 87.8323C137.106 88.5577 140.824 88.7826 141.392 88.824C141.04 88.8148 137.544 88.2501 137.84 89.0214C138.027 89.4989 141.423 90.0222 141.991 90.0682C144.507 90.261 150.821 88.7092 151.565 88.3878L152.069 84.8251C152.069 84.8251 150.514 84.164 149.739 83.939C148.778 83.6635 147.857 83.2916 147.369 83.1539Z" fill="#FDBCA0"/>
<path d="M144.356 24.0175C144.029 22.3188 160.532 17.8378 165.442 32.1851C167.193 37.3088 180.203 37.1619 174.186 47.0329C172.284 50.1502 185.788 52.9325 174.07 60.9715C163.107 68.4918 146.359 61.9035 147.868 56.6651C149.538 50.8665 155.274 53.9563 151.521 46.5737C149.614 42.8182 151.858 40.5823 152.321 39.3243C152.411 39.0627 152.502 38.801 152.592 38.5347C152.869 37.6394 152.985 36.8038 152.592 35.9866C151.415 33.5441 143.385 35.027 145.101 29.2881C146.721 23.866 144.356 24.0175 144.356 24.0175Z" fill="#3F414E"/>
<path d="M31.8686 111.383H29.6911C29.6513 111.101 29.5701 110.851 29.4474 110.632C29.3248 110.41 29.1674 110.221 28.9751 110.065C28.7829 109.91 28.5608 109.79 28.3089 109.707C28.0604 109.625 27.7902 109.583 27.4986 109.583C26.9716 109.583 26.5125 109.714 26.1214 109.976C25.7304 110.234 25.4271 110.612 25.2116 111.109C24.9962 111.603 24.8885 112.203 24.8885 112.909C24.8885 113.635 24.9962 114.245 25.2116 114.739C25.4304 115.232 25.7353 115.605 26.1264 115.857C26.5175 116.109 26.9699 116.235 27.4837 116.235C27.772 116.235 28.0388 116.197 28.2841 116.121C28.5327 116.045 28.7531 115.933 28.9453 115.788C29.1375 115.638 29.2966 115.458 29.4226 115.246C29.5518 115.034 29.6413 114.792 29.6911 114.52L31.8686 114.53C31.8123 114.997 31.6714 115.448 31.446 115.882C31.224 116.313 30.924 116.699 30.5462 117.04C30.1716 117.379 29.7242 117.647 29.2038 117.846C28.6868 118.041 28.1018 118.139 27.4489 118.139C26.5407 118.139 25.7287 117.934 25.0128 117.523C24.3002 117.112 23.7367 116.517 23.3224 115.738C22.9115 114.959 22.706 114.016 22.706 112.909C22.706 111.799 22.9148 110.854 23.3324 110.075C23.75 109.296 24.3168 108.703 25.0327 108.295C25.7486 107.884 26.554 107.679 27.4489 107.679C28.0388 107.679 28.5857 107.762 29.0895 107.928C29.5966 108.093 30.0457 108.335 30.4368 108.653C30.8279 108.968 31.1461 109.354 31.3913 109.812C31.6399 110.269 31.799 110.793 31.8686 111.383ZM35.8301 118.144C35.3429 118.144 34.9087 118.06 34.5275 117.891C34.1464 117.718 33.8447 117.465 33.6227 117.13C33.4039 116.792 33.2946 116.371 33.2946 115.867C33.2946 115.443 33.3724 115.087 33.5282 114.798C33.684 114.51 33.8961 114.278 34.1646 114.102C34.4331 113.927 34.738 113.794 35.0794 113.705C35.4241 113.615 35.7853 113.552 36.1632 113.516C36.6073 113.469 36.9653 113.426 37.237 113.386C37.5088 113.343 37.706 113.28 37.8287 113.197C37.9513 113.115 38.0126 112.992 38.0126 112.83V112.8C38.0126 112.485 37.9132 112.241 37.7143 112.069C37.5188 111.897 37.2403 111.81 36.8791 111.81C36.4979 111.81 36.1947 111.895 35.9693 112.064C35.7439 112.23 35.5947 112.438 35.5218 112.69L33.563 112.531C33.6625 112.067 33.858 111.666 34.1497 111.328C34.4413 110.987 34.8175 110.725 35.2782 110.543C35.7422 110.357 36.2792 110.264 36.889 110.264C37.3133 110.264 37.7193 110.314 38.1071 110.413C38.4982 110.513 38.8445 110.667 39.1461 110.876C39.451 111.085 39.6913 111.353 39.867 111.681C40.0427 112.006 40.1305 112.395 40.1305 112.849V118H38.122V116.941H38.0623C37.9397 117.18 37.7756 117.39 37.5701 117.572C37.3646 117.751 37.1177 117.892 36.8294 117.995C36.541 118.094 36.2079 118.144 35.8301 118.144ZM36.4366 116.683C36.7482 116.683 37.0233 116.621 37.2619 116.499C37.5005 116.373 37.6878 116.204 37.8237 115.991C37.9596 115.779 38.0275 115.539 38.0275 115.271V114.46C37.9612 114.503 37.8701 114.543 37.7541 114.58C37.6414 114.613 37.5138 114.644 37.3713 114.674C37.2287 114.701 37.0862 114.725 36.9437 114.749C36.8012 114.768 36.6719 114.787 36.5559 114.803C36.3073 114.84 36.0903 114.898 35.9046 114.977C35.719 115.057 35.5749 115.165 35.4721 115.3C35.3694 115.433 35.318 115.599 35.318 115.798C35.318 116.086 35.4224 116.306 35.6312 116.459C35.8433 116.608 36.1118 116.683 36.4366 116.683ZM44.1715 107.818V118H42.0536V107.818H44.1715ZM46.1481 118V110.364H48.1665V111.711H48.256C48.4151 111.263 48.6803 110.911 49.0515 110.652C49.4227 110.393 49.8668 110.264 50.3839 110.264C50.9075 110.264 51.3533 110.395 51.7212 110.657C52.0891 110.915 52.3344 111.267 52.457 111.711H52.5366C52.6923 111.273 52.9741 110.924 53.3817 110.662C53.7927 110.397 54.2783 110.264 54.8384 110.264C55.551 110.264 56.1294 110.491 56.5735 110.945C57.0209 111.396 57.2447 112.036 57.2447 112.864V118H55.1317V113.282C55.1317 112.858 55.019 112.54 54.7937 112.327C54.5683 112.115 54.2866 112.009 53.9485 112.009C53.564 112.009 53.2641 112.132 53.0486 112.377C52.8332 112.619 52.7255 112.939 52.7255 113.337V118H50.6722V113.237C50.6722 112.863 50.5645 112.564 50.3491 112.342C50.1369 112.12 49.8569 112.009 49.5089 112.009C49.2735 112.009 49.0614 112.069 48.8725 112.188C48.6869 112.304 48.5394 112.468 48.43 112.68C48.3206 112.889 48.266 113.134 48.266 113.416V118H46.1481ZM68.281 110.746C68.2413 110.345 68.0706 110.034 67.769 109.812C67.4674 109.59 67.058 109.479 66.541 109.479C66.1897 109.479 65.893 109.528 65.6511 109.628C65.4091 109.724 65.2235 109.858 65.0942 110.031C64.9683 110.203 64.9053 110.398 64.9053 110.617C64.8987 110.799 64.9368 110.959 65.0197 111.094C65.1058 111.23 65.2235 111.348 65.3727 111.447C65.5218 111.544 65.6942 111.628 65.8897 111.701C66.0853 111.771 66.2941 111.83 66.5161 111.88L67.4309 112.099C67.875 112.198 68.2827 112.331 68.6539 112.496C69.0251 112.662 69.3466 112.866 69.6184 113.108C69.8902 113.35 70.1006 113.635 70.2498 113.963C70.4023 114.291 70.4801 114.667 70.4835 115.092C70.4801 115.715 70.321 116.255 70.0062 116.712C69.6946 117.166 69.2439 117.519 68.6539 117.771C68.0673 118.02 67.3596 118.144 66.531 118.144C65.7091 118.144 64.9932 118.018 64.3833 117.766C63.7768 117.514 63.3028 117.142 62.9614 116.648C62.6234 116.151 62.446 115.536 62.4295 114.803H64.5126C64.5358 115.145 64.6335 115.43 64.8059 115.658C64.9816 115.884 65.2152 116.054 65.5069 116.17C65.8019 116.283 66.135 116.339 66.5062 116.339C66.8708 116.339 67.1873 116.286 67.4558 116.18C67.7275 116.074 67.938 115.927 68.0871 115.738C68.2363 115.549 68.3109 115.332 68.3109 115.087C68.3109 114.858 68.2429 114.666 68.107 114.51C67.9745 114.354 67.7789 114.222 67.5204 114.112C67.2652 114.003 66.952 113.903 66.5808 113.814L65.4721 113.536C64.6137 113.327 63.9359 113 63.4387 112.556C62.9415 112.112 62.6946 111.514 62.6979 110.761C62.6946 110.145 62.8587 109.606 63.1901 109.146C63.5249 108.685 63.9839 108.325 64.5673 108.067C65.1506 107.808 65.8135 107.679 66.5559 107.679C67.3116 107.679 67.9711 107.808 68.5346 108.067C69.1014 108.325 69.5422 108.685 69.857 109.146C70.1719 109.606 70.3343 110.14 70.3442 110.746H68.281ZM74.2896 107.818V118H72.1717V107.818H74.2896ZM79.7462 118.149C78.9607 118.149 78.2846 117.99 77.7178 117.672C77.1544 117.35 76.7202 116.896 76.4153 116.31C76.1103 115.72 75.9579 115.022 75.9579 114.217C75.9579 113.431 76.1103 112.742 76.4153 112.148C76.7202 111.555 77.1494 111.093 77.7029 110.761C78.2597 110.43 78.9127 110.264 79.6617 110.264C80.1655 110.264 80.6345 110.345 81.0687 110.508C81.5062 110.667 81.8873 110.907 82.2121 111.229C82.5403 111.55 82.7955 111.955 82.9778 112.442C83.16 112.926 83.2512 113.492 83.2512 114.142V114.724H76.803V113.411H81.2576C81.2576 113.106 81.1913 112.836 81.0587 112.601C80.9261 112.366 80.7422 112.182 80.5069 112.049C80.2749 111.913 80.0047 111.845 79.6965 111.845C79.375 111.845 79.09 111.92 78.8414 112.069C78.5961 112.215 78.4039 112.412 78.2647 112.661C78.1255 112.906 78.0542 113.179 78.0509 113.481V114.729C78.0509 115.107 78.1205 115.433 78.2597 115.708C78.4022 115.983 78.6028 116.195 78.8613 116.344C79.1198 116.494 79.4264 116.568 79.781 116.568C80.0163 116.568 80.2318 116.535 80.4273 116.469C80.6229 116.402 80.7903 116.303 80.9295 116.17C81.0687 116.038 81.1747 115.875 81.2476 115.683L83.2064 115.812C83.107 116.283 82.9032 116.694 82.5949 117.045C82.29 117.393 81.8956 117.665 81.4117 117.861C80.9311 118.053 80.376 118.149 79.7462 118.149ZM88.3934 118.149C87.6079 118.149 86.9318 117.99 86.365 117.672C85.8016 117.35 85.3674 116.896 85.0624 116.31C84.7575 115.72 84.6051 115.022 84.6051 114.217C84.6051 113.431 84.7575 112.742 85.0624 112.148C85.3674 111.555 85.7966 111.093 86.3501 110.761C86.9069 110.43 87.5598 110.264 88.3089 110.264C88.8127 110.264 89.2817 110.345 89.7159 110.508C90.1534 110.667 90.5345 110.907 90.8593 111.229C91.1874 111.55 91.4427 111.955 91.6249 112.442C91.8072 112.926 91.8984 113.492 91.8984 114.142V114.724H85.4502V113.411H89.9048C89.9048 113.106 89.8385 112.836 89.7059 112.601C89.5733 112.366 89.3894 112.182 89.1541 112.049C88.9221 111.913 88.6519 111.845 88.3437 111.845C88.0222 111.845 87.7372 111.92 87.4886 112.069C87.2433 112.215 87.0511 112.412 86.9119 112.661C86.7727 112.906 86.7014 113.179 86.6981 113.481V114.729C86.6981 115.107 86.7677 115.433 86.9069 115.708C87.0494 115.983 87.2499 116.195 87.5085 116.344C87.767 116.494 88.0736 116.568 88.4282 116.568C88.6635 116.568 88.879 116.535 89.0745 116.469C89.2701 116.402 89.4374 116.303 89.5766 116.17C89.7159 116.038 89.8219 115.875 89.8948 115.683L91.8536 115.812C91.7542 116.283 91.5504 116.694 91.2421 117.045C90.9372 117.393 90.5428 117.665 90.0589 117.861C89.5783 118.053 89.0231 118.149 88.3934 118.149ZM93.5605 120.864V110.364H95.6485V111.646H95.743C95.8358 111.441 95.97 111.232 96.1457 111.02C96.3247 110.804 96.5567 110.625 96.8417 110.483C97.1301 110.337 97.488 110.264 97.9156 110.264C98.4724 110.264 98.9861 110.41 99.4568 110.702C99.9274 110.99 100.304 111.426 100.585 112.009C100.867 112.589 101.008 113.317 101.008 114.192C101.008 115.044 100.87 115.763 100.595 116.349C100.324 116.933 99.9523 117.375 99.4816 117.677C99.0143 117.975 98.4906 118.124 97.9106 118.124C97.4996 118.124 97.15 118.056 96.8616 117.92C96.5766 117.785 96.3429 117.614 96.1606 117.408C95.9783 117.2 95.8391 116.989 95.743 116.777H95.6784V120.864H93.5605ZM95.6336 114.182C95.6336 114.636 95.6966 115.032 95.8226 115.37C95.9485 115.708 96.1308 115.972 96.3694 116.161C96.6081 116.346 96.8981 116.439 97.2395 116.439C97.5842 116.439 97.8758 116.344 98.1145 116.156C98.3531 115.963 98.5337 115.698 98.6564 115.36C98.7823 115.019 98.8453 114.626 98.8453 114.182C98.8453 113.741 98.784 113.353 98.6613 113.018C98.5387 112.684 98.3581 112.422 98.1194 112.233C97.8808 112.044 97.5875 111.95 97.2395 111.95C96.8948 111.95 96.6031 112.041 96.3645 112.223C96.1291 112.405 95.9485 112.664 95.8226 112.999C95.6966 113.333 95.6336 113.728 95.6336 114.182Z" fill="white"/>
<path d="M27.7188 130.565C27.6733 130.162 27.4858 129.849 27.1562 129.628C26.8267 129.403 26.4119 129.291 25.9119 129.291C25.554 129.291 25.2443 129.348 24.983 129.462C24.7216 129.572 24.5185 129.726 24.3736 129.922C24.2315 130.115 24.1605 130.335 24.1605 130.582C24.1605 130.79 24.2088 130.969 24.3054 131.119C24.4048 131.27 24.5341 131.396 24.6932 131.499C24.8551 131.598 25.0284 131.682 25.2131 131.75C25.3977 131.815 25.5753 131.869 25.7457 131.912L26.598 132.134C26.8764 132.202 27.1619 132.294 27.4545 132.411C27.7472 132.527 28.0185 132.68 28.2685 132.871C28.5185 133.061 28.7202 133.297 28.8736 133.578C29.0298 133.859 29.108 134.196 29.108 134.588C29.108 135.082 28.9801 135.521 28.7244 135.905C28.4716 136.288 28.1037 136.591 27.6207 136.812C27.1406 137.034 26.5597 137.145 25.8778 137.145C25.2244 137.145 24.6591 137.041 24.1818 136.834C23.7045 136.626 23.331 136.332 23.0611 135.952C22.7912 135.568 22.642 135.114 22.6136 134.588H23.9347C23.9602 134.903 24.0625 135.166 24.2415 135.376C24.4233 135.584 24.6548 135.739 24.9361 135.841C25.2202 135.94 25.5312 135.99 25.8693 135.99C26.2415 135.99 26.5724 135.932 26.8622 135.815C27.1548 135.696 27.3849 135.531 27.5526 135.321C27.7202 135.108 27.804 134.859 27.804 134.575C27.804 134.317 27.7301 134.105 27.5824 133.94C27.4375 133.776 27.2401 133.639 26.9901 133.531C26.7429 133.423 26.4631 133.328 26.1506 133.246L25.1193 132.964C24.4205 132.774 23.8665 132.494 23.4574 132.125C23.0511 131.756 22.848 131.267 22.848 130.659C22.848 130.156 22.9844 129.717 23.2571 129.342C23.5298 128.967 23.8991 128.676 24.3651 128.469C24.831 128.259 25.3565 128.153 25.9418 128.153C26.5327 128.153 27.054 128.257 27.5057 128.464C27.9602 128.672 28.3182 128.957 28.5795 129.321C28.8409 129.682 28.9773 130.097 28.9886 130.565H27.7188ZM33.3363 137.132C32.7227 137.132 32.1871 136.991 31.7298 136.71C31.2724 136.429 30.9173 136.036 30.6644 135.53C30.4116 135.024 30.2852 134.433 30.2852 133.757C30.2852 133.078 30.4116 132.484 30.6644 131.976C30.9173 131.467 31.2724 131.072 31.7298 130.791C32.1871 130.51 32.7227 130.369 33.3363 130.369C33.9499 130.369 34.4854 130.51 34.9428 130.791C35.4002 131.072 35.7553 131.467 36.0082 131.976C36.261 132.484 36.3874 133.078 36.3874 133.757C36.3874 134.433 36.261 135.024 36.0082 135.53C35.7553 136.036 35.4002 136.429 34.9428 136.71C34.4854 136.991 33.9499 137.132 33.3363 137.132ZM33.3406 136.062C33.7383 136.062 34.0678 135.957 34.3292 135.747C34.5906 135.537 34.7837 135.257 34.9087 134.908C35.0366 134.558 35.1005 134.173 35.1005 133.753C35.1005 133.335 35.0366 132.952 34.9087 132.602C34.7837 132.25 34.5906 131.967 34.3292 131.754C34.0678 131.541 33.7383 131.435 33.3406 131.435C32.94 131.435 32.6076 131.541 32.3434 131.754C32.082 131.967 31.8874 132.25 31.7596 132.602C31.6346 132.952 31.5721 133.335 31.5721 133.753C31.5721 134.173 31.6346 134.558 31.7596 134.908C31.8874 135.257 32.082 135.537 32.3434 135.747C32.6076 135.957 32.94 136.062 33.3406 136.062ZM41.956 134.286V130.455H43.2344V137H41.9815V135.866H41.9134C41.7628 136.216 41.5213 136.507 41.1889 136.74C40.8594 136.97 40.4489 137.085 39.9574 137.085C39.5369 137.085 39.1648 136.993 38.8409 136.808C38.5199 136.621 38.267 136.344 38.0824 135.977C37.9006 135.611 37.8097 135.158 37.8097 134.618V130.455H39.0838V134.464C39.0838 134.911 39.2074 135.266 39.4545 135.53C39.7017 135.794 40.0227 135.926 40.4176 135.926C40.6563 135.926 40.8935 135.866 41.1293 135.747C41.3679 135.628 41.5653 135.447 41.7216 135.206C41.8807 134.964 41.9588 134.658 41.956 134.286ZM46.2205 133.114V137H44.9464V130.455H46.1694V131.52H46.2504C46.4009 131.173 46.6367 130.895 46.9577 130.685C47.2816 130.474 47.6893 130.369 48.1808 130.369C48.6268 130.369 49.0174 130.463 49.3526 130.651C49.6879 130.835 49.9478 131.111 50.1325 131.477C50.3171 131.844 50.4094 132.297 50.4094 132.837V137H49.1353V132.99C49.1353 132.516 49.0117 132.145 48.7646 131.878C48.5174 131.608 48.1779 131.473 47.7461 131.473C47.4506 131.473 47.1879 131.537 46.9577 131.665C46.7305 131.793 46.5501 131.98 46.4165 132.227C46.2859 132.472 46.2205 132.767 46.2205 133.114ZM54.5685 137.128C54.0401 137.128 53.5685 136.993 53.1538 136.723C52.7418 136.45 52.418 136.062 52.1822 135.56C51.9492 135.054 51.8327 134.447 51.8327 133.74C51.8327 133.033 51.9506 132.428 52.1864 131.925C52.4251 131.422 52.7518 131.037 53.1665 130.77C53.5813 130.503 54.0515 130.369 54.5771 130.369C54.9833 130.369 55.31 130.438 55.5572 130.574C55.8072 130.707 56.0004 130.864 56.1367 131.043C56.2759 131.222 56.3839 131.379 56.4606 131.516H56.5373V128.273H57.8114V137H56.5671V135.982H56.4606C56.3839 136.121 56.2731 136.28 56.1282 136.459C55.9862 136.638 55.7901 136.794 55.5401 136.928C55.2901 137.061 54.9663 137.128 54.5685 137.128ZM54.8498 136.041C55.2163 136.041 55.5259 135.945 55.7788 135.751C56.0344 135.555 56.2276 135.284 56.3583 134.938C56.4918 134.591 56.5586 134.187 56.5586 133.727C56.5586 133.273 56.4933 132.875 56.3626 132.534C56.2319 132.193 56.0401 131.928 55.7873 131.737C55.5344 131.547 55.2219 131.452 54.8498 131.452C54.4663 131.452 54.1467 131.551 53.891 131.75C53.6353 131.949 53.4421 132.22 53.3114 132.564C53.1836 132.908 53.1197 133.295 53.1197 133.727C53.1197 134.165 53.185 134.558 53.3157 134.908C53.4464 135.257 53.6396 135.534 53.8952 135.739C54.1538 135.94 54.4719 136.041 54.8498 136.041ZM67.668 130.565C67.6225 130.162 67.435 129.849 67.1055 129.628C66.7759 129.403 66.3612 129.291 65.8612 129.291C65.5032 129.291 65.1935 129.348 64.9322 129.462C64.6708 129.572 64.4677 129.726 64.3228 129.922C64.1808 130.115 64.1097 130.335 64.1097 130.582C64.1097 130.79 64.158 130.969 64.2546 131.119C64.354 131.27 64.4833 131.396 64.6424 131.499C64.8043 131.598 64.9776 131.682 65.1623 131.75C65.3469 131.815 65.5245 131.869 65.695 131.912L66.5472 132.134C66.8256 132.202 67.1112 132.294 67.4038 132.411C67.6964 132.527 67.9677 132.68 68.2177 132.871C68.4677 133.061 68.6694 133.297 68.8228 133.578C68.979 133.859 69.0572 134.196 69.0572 134.588C69.0572 135.082 68.9293 135.521 68.6737 135.905C68.4208 136.288 68.0529 136.591 67.57 136.812C67.0898 137.034 66.5089 137.145 65.8271 137.145C65.1737 137.145 64.6083 137.041 64.131 136.834C63.6538 136.626 63.2802 136.332 63.0103 135.952C62.7404 135.568 62.5913 135.114 62.5629 134.588H63.8839C63.9094 134.903 64.0117 135.166 64.1907 135.376C64.3725 135.584 64.604 135.739 64.8853 135.841C65.1694 135.94 65.4805 135.99 65.8185 135.99C66.1907 135.99 66.5217 135.932 66.8114 135.815C67.104 135.696 67.3342 135.531 67.5018 135.321C67.6694 135.108 67.7532 134.859 67.7532 134.575C67.7532 134.317 67.6793 134.105 67.5316 133.94C67.3867 133.776 67.1893 133.639 66.9393 133.531C66.6921 133.423 66.4123 133.328 66.0998 133.246L65.0685 132.964C64.3697 132.774 63.8157 132.494 63.4066 132.125C63.0004 131.756 62.7972 131.267 62.7972 130.659C62.7972 130.156 62.9336 129.717 63.2063 129.342C63.479 128.967 63.8484 128.676 64.3143 128.469C64.7802 128.259 65.3058 128.153 65.891 128.153C66.4819 128.153 67.0032 128.257 67.4549 128.464C67.9094 128.672 68.2674 128.957 68.5288 129.321C68.7901 129.682 68.9265 130.097 68.9379 130.565H67.668ZM71.8026 128.273V137H70.5284V128.273H71.8026ZM76.3377 137.132C75.6928 137.132 75.1374 136.994 74.6715 136.719C74.2085 136.44 73.8505 136.05 73.5977 135.547C73.3477 135.041 73.2227 134.449 73.2227 133.77C73.2227 133.099 73.3477 132.509 73.5977 131.997C73.8505 131.486 74.2028 131.087 74.6545 130.8C75.109 130.513 75.6403 130.369 76.2482 130.369C76.6175 130.369 76.9755 130.43 77.3221 130.553C77.6687 130.675 77.9798 130.866 78.2553 131.128C78.5309 131.389 78.7482 131.729 78.9073 132.146C79.0664 132.561 79.146 133.065 79.146 133.659V134.111H73.9428V133.156H77.8974C77.8974 132.821 77.8292 132.524 77.6928 132.266C77.5565 132.004 77.3647 131.798 77.1175 131.648C76.8732 131.497 76.5863 131.422 76.2567 131.422C75.8988 131.422 75.5863 131.51 75.3192 131.686C75.055 131.859 74.8505 132.087 74.7056 132.368C74.5636 132.646 74.4925 132.949 74.4925 133.276V134.021C74.4925 134.459 74.5692 134.831 74.7227 135.138C74.8789 135.445 75.0962 135.679 75.3746 135.841C75.6531 136 75.9783 136.08 76.3505 136.08C76.592 136.08 76.8121 136.045 77.011 135.977C77.2099 135.906 77.3817 135.801 77.5266 135.662C77.6715 135.523 77.7823 135.351 77.859 135.146L79.065 135.364C78.9684 135.719 78.7951 136.03 78.5451 136.297C78.2979 136.561 77.9869 136.767 77.6119 136.915C77.2397 137.06 76.815 137.132 76.3377 137.132ZM83.3807 137.132C82.7358 137.132 82.1804 136.994 81.7145 136.719C81.2514 136.44 80.8935 136.05 80.6406 135.547C80.3906 135.041 80.2656 134.449 80.2656 133.77C80.2656 133.099 80.3906 132.509 80.6406 131.997C80.8935 131.486 81.2457 131.087 81.6974 130.8C82.152 130.513 82.6832 130.369 83.2912 130.369C83.6605 130.369 84.0185 130.43 84.3651 130.553C84.7116 130.675 85.0227 130.866 85.2983 131.128C85.5739 131.389 85.7912 131.729 85.9503 132.146C86.1094 132.561 86.1889 133.065 86.1889 133.659V134.111H80.9858V133.156H84.9403C84.9403 132.821 84.8722 132.524 84.7358 132.266C84.5994 132.004 84.4077 131.798 84.1605 131.648C83.9162 131.497 83.6293 131.422 83.2997 131.422C82.9418 131.422 82.6293 131.51 82.3622 131.686C82.098 131.859 81.8935 132.087 81.7486 132.368C81.6065 132.646 81.5355 132.949 81.5355 133.276V134.021C81.5355 134.459 81.6122 134.831 81.7656 135.138C81.9219 135.445 82.1392 135.679 82.4176 135.841C82.696 136 83.0213 136.08 83.3935 136.08C83.6349 136.08 83.8551 136.045 84.054 135.977C84.2528 135.906 84.4247 135.801 84.5696 135.662C84.7145 135.523 84.8253 135.351 84.902 135.146L86.108 135.364C86.0114 135.719 85.8381 136.03 85.5881 136.297C85.3409 136.561 85.0298 136.767 84.6548 136.915C84.2827 137.06 83.858 137.132 83.3807 137.132ZM87.6026 139.455V130.455H88.8469V131.516H88.9535C89.0273 131.379 89.1339 131.222 89.2731 131.043C89.4123 130.864 89.6055 130.707 89.8526 130.574C90.0998 130.438 90.4265 130.369 90.8327 130.369C91.3612 130.369 91.8327 130.503 92.2475 130.77C92.6623 131.037 92.9876 131.422 93.2234 131.925C93.462 132.428 93.5813 133.033 93.5813 133.74C93.5813 134.447 93.4634 135.054 93.2276 135.56C92.9918 136.062 92.668 136.45 92.256 136.723C91.8441 136.993 91.3739 137.128 90.8455 137.128C90.4478 137.128 90.1225 137.061 89.8697 136.928C89.6197 136.794 89.4237 136.638 89.2816 136.459C89.1396 136.28 89.0302 136.121 88.9535 135.982H88.8768V139.455H87.6026ZM88.8512 133.727C88.8512 134.187 88.918 134.591 89.0515 134.938C89.185 135.284 89.3782 135.555 89.631 135.751C89.8839 135.945 90.1935 136.041 90.56 136.041C90.9407 136.041 91.2589 135.94 91.5146 135.739C91.7702 135.534 91.9634 135.257 92.0941 134.908C92.2276 134.558 92.2944 134.165 92.2944 133.727C92.2944 133.295 92.229 132.908 92.0984 132.564C91.9705 132.22 91.7773 131.949 91.5188 131.75C91.2631 131.551 90.9435 131.452 90.56 131.452C90.1907 131.452 89.8782 131.547 89.6225 131.737C89.3697 131.928 89.1779 132.193 89.0472 132.534C88.9165 132.875 88.8512 133.273 88.8512 133.727ZM98.1847 137V130.455H99.4588V137H98.1847ZM98.8281 129.445C98.6065 129.445 98.4162 129.371 98.2571 129.223C98.1009 129.072 98.0227 128.893 98.0227 128.686C98.0227 128.476 98.1009 128.297 98.2571 128.149C98.4162 127.999 98.6065 127.923 98.8281 127.923C99.0497 127.923 99.2386 127.999 99.3949 128.149C99.554 128.297 99.6335 128.476 99.6335 128.686C99.6335 128.893 99.554 129.072 99.3949 129.223C99.2386 129.371 99.0497 129.445 98.8281 129.445ZM106.078 132.053L104.923 132.257C104.875 132.109 104.798 131.969 104.693 131.835C104.591 131.702 104.451 131.592 104.275 131.507C104.099 131.422 103.879 131.379 103.615 131.379C103.254 131.379 102.953 131.46 102.711 131.622C102.47 131.781 102.349 131.987 102.349 132.24C102.349 132.459 102.43 132.635 102.592 132.768C102.754 132.902 103.015 133.011 103.376 133.097L104.416 133.335C105.018 133.474 105.467 133.689 105.762 133.979C106.058 134.268 106.206 134.645 106.206 135.108C106.206 135.5 106.092 135.849 105.865 136.156C105.64 136.46 105.326 136.699 104.923 136.872C104.522 137.045 104.058 137.132 103.529 137.132C102.797 137.132 102.199 136.976 101.735 136.663C101.272 136.348 100.988 135.901 100.883 135.321L102.115 135.134C102.191 135.455 102.349 135.697 102.588 135.862C102.826 136.024 103.137 136.105 103.521 136.105C103.939 136.105 104.272 136.018 104.522 135.845C104.772 135.669 104.897 135.455 104.897 135.202C104.897 134.997 104.821 134.825 104.667 134.686C104.517 134.547 104.285 134.442 103.973 134.371L102.865 134.128C102.254 133.989 101.802 133.767 101.51 133.463C101.22 133.159 101.075 132.774 101.075 132.308C101.075 131.922 101.183 131.584 101.399 131.294C101.615 131.004 101.913 130.778 102.294 130.616C102.674 130.452 103.11 130.369 103.602 130.369C104.309 130.369 104.866 130.523 105.272 130.83C105.679 131.134 105.947 131.541 106.078 132.053ZM116.791 131.03C116.708 130.771 116.598 130.54 116.458 130.335C116.322 130.128 116.159 129.952 115.968 129.807C115.778 129.659 115.561 129.547 115.316 129.47C115.075 129.393 114.809 129.355 114.52 129.355C114.028 129.355 113.585 129.482 113.19 129.734C112.795 129.987 112.483 130.358 112.252 130.847C112.025 131.332 111.912 131.928 111.912 132.632C111.912 133.339 112.027 133.937 112.257 134.426C112.487 134.915 112.802 135.286 113.203 135.538C113.603 135.791 114.059 135.918 114.571 135.918C115.045 135.918 115.458 135.821 115.811 135.628C116.166 135.435 116.44 135.162 116.633 134.81C116.829 134.455 116.927 134.037 116.927 133.557L117.268 133.621H114.771V132.534H118.201V133.527C118.201 134.26 118.045 134.896 117.733 135.436C117.423 135.973 116.994 136.388 116.446 136.68C115.9 136.973 115.275 137.119 114.571 137.119C113.781 137.119 113.088 136.938 112.491 136.574C111.897 136.21 111.434 135.695 111.102 135.027C110.77 134.357 110.603 133.561 110.603 132.641C110.603 131.945 110.7 131.32 110.893 130.766C111.086 130.212 111.358 129.741 111.707 129.355C112.059 128.966 112.473 128.669 112.947 128.464C113.424 128.257 113.946 128.153 114.511 128.153C114.983 128.153 115.422 128.223 115.828 128.362C116.237 128.501 116.6 128.699 116.919 128.955C117.24 129.21 117.505 129.514 117.716 129.866C117.926 130.216 118.068 130.604 118.142 131.03H116.791ZM123.917 134.286V130.455H125.195V137H123.942V135.866H123.874C123.724 136.216 123.482 136.507 123.15 136.74C122.82 136.97 122.41 137.085 121.918 137.085C121.498 137.085 121.126 136.993 120.802 136.808C120.481 136.621 120.228 136.344 120.043 135.977C119.862 135.611 119.771 135.158 119.771 134.618V130.455H121.045V134.464C121.045 134.911 121.168 135.266 121.415 135.53C121.663 135.794 121.984 135.926 122.379 135.926C122.617 135.926 122.854 135.866 123.09 135.747C123.329 135.628 123.526 135.447 123.683 135.206C123.842 134.964 123.92 134.658 123.917 134.286ZM128.812 137.145C128.397 137.145 128.022 137.068 127.687 136.915C127.352 136.759 127.086 136.533 126.89 136.237C126.697 135.942 126.6 135.58 126.6 135.151C126.6 134.781 126.672 134.477 126.814 134.239C126.956 134 127.147 133.811 127.389 133.672C127.63 133.533 127.9 133.428 128.199 133.357C128.497 133.286 128.801 133.232 129.11 133.195C129.502 133.149 129.821 133.112 130.065 133.084C130.309 133.053 130.487 133.003 130.598 132.935C130.708 132.866 130.764 132.756 130.764 132.602V132.572C130.764 132.2 130.659 131.912 130.449 131.707C130.241 131.503 129.931 131.401 129.52 131.401C129.091 131.401 128.752 131.496 128.505 131.686C128.261 131.874 128.092 132.082 127.998 132.312L126.801 132.04C126.943 131.642 127.15 131.321 127.423 131.077C127.699 130.83 128.015 130.651 128.373 130.54C128.731 130.426 129.108 130.369 129.502 130.369C129.764 130.369 130.041 130.401 130.333 130.463C130.629 130.523 130.904 130.634 131.16 130.795C131.419 130.957 131.63 131.189 131.795 131.49C131.96 131.788 132.042 132.176 132.042 132.653V137H130.798V136.105H130.747C130.664 136.27 130.541 136.432 130.376 136.591C130.211 136.75 130 136.882 129.741 136.987C129.483 137.092 129.173 137.145 128.812 137.145ZM129.089 136.122C129.441 136.122 129.743 136.053 129.993 135.913C130.245 135.774 130.437 135.592 130.568 135.368C130.701 135.141 130.768 134.898 130.768 134.639V133.795C130.723 133.841 130.635 133.884 130.504 133.923C130.376 133.96 130.23 133.993 130.065 134.021C129.9 134.047 129.74 134.071 129.583 134.094C129.427 134.114 129.297 134.131 129.191 134.145C128.944 134.176 128.718 134.229 128.514 134.303C128.312 134.376 128.15 134.483 128.028 134.622C127.909 134.759 127.849 134.94 127.849 135.168C127.849 135.483 127.966 135.722 128.199 135.884C128.431 136.043 128.728 136.122 129.089 136.122ZM133.739 137V130.455H134.971V131.494H135.039C135.158 131.142 135.369 130.865 135.67 130.663C135.974 130.459 136.317 130.357 136.701 130.357C136.781 130.357 136.874 130.359 136.982 130.365C137.093 130.371 137.18 130.378 137.242 130.386V131.605C137.191 131.591 137.1 131.575 136.969 131.558C136.839 131.538 136.708 131.528 136.577 131.528C136.276 131.528 136.008 131.592 135.772 131.72C135.539 131.845 135.354 132.02 135.218 132.244C135.082 132.466 135.013 132.719 135.013 133.003V137H133.739ZM140.191 137.145C139.776 137.145 139.401 137.068 139.066 136.915C138.731 136.759 138.465 136.533 138.269 136.237C138.076 135.942 137.979 135.58 137.979 135.151C137.979 134.781 138.05 134.477 138.192 134.239C138.335 134 138.526 133.811 138.768 133.672C139.009 133.533 139.279 133.428 139.577 133.357C139.876 133.286 140.18 133.232 140.489 133.195C140.881 133.149 141.2 133.112 141.444 133.084C141.688 133.053 141.866 133.003 141.977 132.935C142.087 132.866 142.143 132.756 142.143 132.602V132.572C142.143 132.2 142.038 131.912 141.827 131.707C141.62 131.503 141.31 131.401 140.898 131.401C140.469 131.401 140.131 131.496 139.884 131.686C139.64 131.874 139.471 132.082 139.377 132.312L138.18 132.04C138.322 131.642 138.529 131.321 138.802 131.077C139.077 130.83 139.394 130.651 139.752 130.54C140.11 130.426 140.487 130.369 140.881 130.369C141.143 130.369 141.42 130.401 141.712 130.463C142.008 130.523 142.283 130.634 142.539 130.795C142.798 130.957 143.009 131.189 143.174 131.49C143.339 131.788 143.421 132.176 143.421 132.653V137H142.177V136.105H142.126C142.043 136.27 141.92 136.432 141.755 136.591C141.59 136.75 141.379 136.882 141.12 136.987C140.862 137.092 140.552 137.145 140.191 137.145ZM140.468 136.122C140.82 136.122 141.121 136.053 141.371 135.913C141.624 135.774 141.816 135.592 141.947 135.368C142.08 135.141 142.147 134.898 142.147 134.639V133.795C142.102 133.841 142.013 133.884 141.883 133.923C141.755 133.96 141.609 133.993 141.444 134.021C141.279 134.047 141.119 134.071 140.962 134.094C140.806 134.114 140.675 134.131 140.57 134.145C140.323 134.176 140.097 134.229 139.893 134.303C139.691 134.376 139.529 134.483 139.407 134.622C139.288 134.759 139.228 134.94 139.228 135.168C139.228 135.483 139.344 135.722 139.577 135.884C139.81 136.043 140.107 136.122 140.468 136.122ZM146.392 133.114V137H145.118V130.455H146.341V131.52H146.422C146.573 131.173 146.809 130.895 147.13 130.685C147.453 130.474 147.861 130.369 148.353 130.369C148.799 130.369 149.189 130.463 149.525 130.651C149.86 130.835 150.12 131.111 150.304 131.477C150.489 131.844 150.581 132.297 150.581 132.837V137H149.307V132.99C149.307 132.516 149.184 132.145 148.936 131.878C148.689 131.608 148.35 131.473 147.918 131.473C147.623 131.473 147.36 131.537 147.13 131.665C146.902 131.793 146.722 131.98 146.588 132.227C146.458 132.472 146.392 132.767 146.392 133.114ZM155.346 130.455V131.477H151.77V130.455H155.346ZM152.729 128.886H154.003V135.078C154.003 135.325 154.04 135.511 154.114 135.636C154.188 135.759 154.283 135.842 154.4 135.888C154.519 135.93 154.648 135.952 154.787 135.952C154.89 135.952 154.979 135.945 155.056 135.93C155.132 135.916 155.192 135.905 155.235 135.896L155.465 136.949C155.391 136.977 155.286 137.006 155.15 137.034C155.013 137.065 154.843 137.082 154.638 137.085C154.303 137.091 153.99 137.031 153.701 136.906C153.411 136.781 153.176 136.588 152.998 136.327C152.819 136.065 152.729 135.737 152.729 135.342V128.886ZM159.506 137.132C158.861 137.132 158.305 136.994 157.839 136.719C157.376 136.44 157.018 136.05 156.766 135.547C156.516 135.041 156.391 134.449 156.391 133.77C156.391 133.099 156.516 132.509 156.766 131.997C157.018 131.486 157.371 131.087 157.822 130.8C158.277 130.513 158.808 130.369 159.416 130.369C159.786 130.369 160.143 130.43 160.49 130.553C160.837 130.675 161.148 130.866 161.423 131.128C161.699 131.389 161.916 131.729 162.075 132.146C162.234 132.561 162.314 133.065 162.314 133.659V134.111H157.111V133.156H161.065C161.065 132.821 160.997 132.524 160.861 132.266C160.724 132.004 160.533 131.798 160.286 131.648C160.041 131.497 159.754 131.422 159.425 131.422C159.067 131.422 158.754 131.51 158.487 131.686C158.223 131.859 158.018 132.087 157.874 132.368C157.732 132.646 157.661 132.949 157.661 133.276V134.021C157.661 134.459 157.737 134.831 157.891 135.138C158.047 135.445 158.264 135.679 158.543 135.841C158.821 136 159.146 136.08 159.518 136.08C159.76 136.08 159.98 136.045 160.179 135.977C160.378 135.906 160.55 135.801 160.695 135.662C160.839 135.523 160.95 135.351 161.027 135.146L162.233 135.364C162.136 135.719 161.963 136.03 161.713 136.297C161.466 136.561 161.155 136.767 160.78 136.915C160.408 137.06 159.983 137.132 159.506 137.132ZM166.549 137.132C165.904 137.132 165.348 136.994 164.882 136.719C164.419 136.44 164.061 136.05 163.809 135.547C163.559 135.041 163.434 134.449 163.434 133.77C163.434 133.099 163.559 132.509 163.809 131.997C164.061 131.486 164.414 131.087 164.865 130.8C165.32 130.513 165.851 130.369 166.459 130.369C166.828 130.369 167.186 130.43 167.533 130.553C167.88 130.675 168.191 130.866 168.466 131.128C168.742 131.389 168.959 131.729 169.118 132.146C169.277 132.561 169.357 133.065 169.357 133.659V134.111H164.154V133.156H168.108C168.108 132.821 168.04 132.524 167.904 132.266C167.767 132.004 167.576 131.798 167.328 131.648C167.084 131.497 166.797 131.422 166.468 131.422C166.11 131.422 165.797 131.51 165.53 131.686C165.266 131.859 165.061 132.087 164.917 132.368C164.775 132.646 164.703 132.949 164.703 133.276V134.021C164.703 134.459 164.78 134.831 164.934 135.138C165.09 135.445 165.307 135.679 165.586 135.841C165.864 136 166.189 136.08 166.561 136.08C166.803 136.08 167.023 136.045 167.222 135.977C167.421 135.906 167.593 135.801 167.738 135.662C167.882 135.523 167.993 135.351 168.07 135.146L169.276 135.364C169.179 135.719 169.006 136.03 168.756 136.297C168.509 136.561 168.198 136.767 167.823 136.915C167.451 137.06 167.026 137.132 166.549 137.132ZM173.221 137.128C172.692 137.128 172.221 136.993 171.806 136.723C171.394 136.45 171.07 136.062 170.835 135.56C170.602 135.054 170.485 134.447 170.485 133.74C170.485 133.033 170.603 132.428 170.839 131.925C171.077 131.422 171.404 131.037 171.819 130.77C172.234 130.503 172.704 130.369 173.229 130.369C173.636 130.369 173.962 130.438 174.21 130.574C174.46 130.707 174.653 130.864 174.789 131.043C174.928 131.222 175.036 131.379 175.113 131.516H175.19V128.273H176.464V137H175.219V135.982H175.113C175.036 136.121 174.925 136.28 174.781 136.459C174.638 136.638 174.442 136.794 174.192 136.928C173.942 137.061 173.619 137.128 173.221 137.128ZM173.502 136.041C173.869 136.041 174.178 135.945 174.431 135.751C174.687 135.555 174.88 135.284 175.011 134.938C175.144 134.591 175.211 134.187 175.211 133.727C175.211 133.273 175.146 132.875 175.015 132.534C174.884 132.193 174.692 131.928 174.44 131.737C174.187 131.547 173.874 131.452 173.502 131.452C173.119 131.452 172.799 131.551 172.543 131.75C172.288 131.949 172.094 132.22 171.964 132.564C171.836 132.908 171.772 133.295 171.772 133.727C171.772 134.165 171.837 134.558 171.968 134.908C172.099 135.257 172.292 135.534 172.548 135.739C172.806 135.94 173.124 136.041 173.502 136.041Z" fill="white"/>
</svg>
